<svg width="379" height="263" viewBox="0 0 379 263" fill="none" xmlns="http://www.w3.org/2000/svg">
<g clip-path="url(#clip0_1_3)">
<path d="M8.5 201.73V13H32.8V119.38H42.655L19.84 201.73H8.5ZM62.5 202V119.38H42.655L49.27 95.35H62.5V13H86.8V202H62.5ZM113.705 202V57.82H121.67L147.185 202H113.705ZM155.15 246.685L147.185 202H153.395V57.82H177.695V246.685H155.15ZM211.422 57.82H270.417V202H239.367L234.777 178.105H246.117V81.85H216.147L211.422 57.82ZM204.672 81.85H216.147L234.777 178.105H228.972V246.82H204.672V81.85ZM354.724 57.82L347.434 81.85H321.784V153.94H325.429L318.139 177.97H297.484V57.82H354.724ZM355.534 81.85V153.94H325.429L347.434 81.85H355.534ZM355.534 177.97V202H310.849L318.139 177.97H355.534Z" fill="#14FF00"/>
<path d="M12.5 201.73V13H36.8V119.38H46.655L23.84 201.73H12.5ZM66.5 202V119.38H46.655L53.27 95.35H66.5V13H90.8V202H66.5ZM117.705 202V57.82H125.67L151.185 202H117.705ZM159.15 246.685L151.185 202H157.395V57.82H181.695V246.685H159.15ZM215.422 57.82H274.417V202H243.367L238.777 178.105H250.117V81.85H220.147L215.422 57.82ZM208.672 81.85H220.147L238.777 178.105H232.972V246.82H208.672V81.85ZM358.724 57.82L351.434 81.85H325.784V153.94H329.429L322.139 177.97H301.484V57.82H358.724ZM359.534 81.85V153.94H329.429L351.434 81.85H359.534ZM359.534 177.97V202H314.849L322.139 177.97H359.534Z" fill="black"/>
</g>
<defs>
<clipPath id="clip0_1_3">
<rect width="379" height="263" fill="white"/>
</clipPath>
</defs>
</svg>
